%TF.GenerationSoftware,KiCad,Pcbnew,7.0.11-7.0.11~ubuntu22.04.1*%
%TF.CreationDate,2024-05-21T14:55:32+03:00*%
%TF.ProjectId,Neo6502PC-CPU_Rev_B,4e656f36-3530-4325-9043-2d4350555f52,B*%
%TF.SameCoordinates,PX365c040PY8f0d180*%
%TF.FileFunction,Soldermask,Bot*%
%TF.FilePolarity,Negative*%
%FSLAX46Y46*%
G04 Gerber Fmt 4.6, Leading zero omitted, Abs format (unit mm)*
G04 Created by KiCad (PCBNEW 7.0.11-7.0.11~ubuntu22.04.1) date 2024-05-21 14:55:32*
%MOMM*%
%LPD*%
G01*
G04 APERTURE LIST*
G04 Aperture macros list*
%AMRoundRect*
0 Rectangle with rounded corners*
0 $1 Rounding radius*
0 $2 $3 $4 $5 $6 $7 $8 $9 X,Y pos of 4 corners*
0 Add a 4 corners polygon primitive as box body*
4,1,4,$2,$3,$4,$5,$6,$7,$8,$9,$2,$3,0*
0 Add four circle primitives for the rounded corners*
1,1,$1+$1,$2,$3*
1,1,$1+$1,$4,$5*
1,1,$1+$1,$6,$7*
1,1,$1+$1,$8,$9*
0 Add four rect primitives between the rounded corners*
20,1,$1+$1,$2,$3,$4,$5,0*
20,1,$1+$1,$4,$5,$6,$7,0*
20,1,$1+$1,$6,$7,$8,$9,0*
20,1,$1+$1,$8,$9,$2,$3,0*%
G04 Aperture macros list end*
%ADD10C,3.401601*%
%ADD11RoundRect,0.050800X-0.250000X-0.275000X0.250000X-0.275000X0.250000X0.275000X-0.250000X0.275000X0*%
%ADD12RoundRect,0.050800X0.250000X0.275000X-0.250000X0.275000X-0.250000X-0.275000X0.250000X-0.275000X0*%
%ADD13RoundRect,0.050800X-0.275000X0.250000X-0.275000X-0.250000X0.275000X-0.250000X0.275000X0.250000X0*%
%ADD14RoundRect,0.050800X0.275000X-0.250000X0.275000X0.250000X-0.275000X0.250000X-0.275000X-0.250000X0*%
%ADD15C,1.254000*%
%ADD16RoundRect,0.050800X0.508000X0.508000X-0.508000X0.508000X-0.508000X-0.508000X0.508000X-0.508000X0*%
%ADD17C,1.801600*%
%ADD18RoundRect,0.050800X-1.250000X-1.500000X1.250000X-1.500000X1.250000X1.500000X-1.250000X1.500000X0*%
%ADD19RoundRect,0.050800X-1.050000X-1.500000X1.050000X-1.500000X1.050000X1.500000X-1.050000X1.500000X0*%
%ADD20RoundRect,0.050800X0.500000X-0.700000X0.500000X0.700000X-0.500000X0.700000X-0.500000X-0.700000X0*%
%ADD21RoundRect,0.050800X0.600000X-0.700000X0.600000X0.700000X-0.600000X0.700000X-0.600000X-0.700000X0*%
%ADD22RoundRect,0.050800X-0.381000X-0.508000X0.381000X-0.508000X0.381000X0.508000X-0.381000X0.508000X0*%
%ADD23RoundRect,0.050800X-0.254000X-0.508000X0.254000X-0.508000X0.254000X0.508000X-0.254000X0.508000X0*%
%ADD24RoundRect,0.050800X0.300000X1.100000X-0.300000X1.100000X-0.300000X-1.100000X0.300000X-1.100000X0*%
%ADD25RoundRect,0.050800X0.100000X-0.437500X0.100000X0.437500X-0.100000X0.437500X-0.100000X-0.437500X0*%
%ADD26RoundRect,0.050800X0.437500X-0.100000X0.437500X0.100000X-0.437500X0.100000X-0.437500X-0.100000X0*%
%ADD27C,1.101600*%
%ADD28C,1.901600*%
%ADD29RoundRect,0.050800X1.600000X-1.600000X1.600000X1.600000X-1.600000X1.600000X-1.600000X-1.600000X0*%
%ADD30RoundRect,0.050800X0.175000X0.700000X-0.175000X0.700000X-0.175000X-0.700000X0.175000X-0.700000X0*%
%ADD31RoundRect,0.050800X-0.175000X-0.700000X0.175000X-0.700000X0.175000X0.700000X-0.175000X0.700000X0*%
%ADD32RoundRect,0.050800X-0.800000X-0.900000X0.800000X-0.900000X0.800000X0.900000X-0.800000X0.900000X0*%
%ADD33RoundRect,0.050800X0.700000X-0.750000X0.700000X0.750000X-0.700000X0.750000X-0.700000X-0.750000X0*%
%ADD34RoundRect,0.050800X-0.889000X-0.889000X0.889000X-0.889000X0.889000X0.889000X-0.889000X0.889000X0*%
%ADD35C,1.879600*%
%ADD36RoundRect,0.050800X0.889000X-0.762000X0.889000X0.762000X-0.889000X0.762000X-0.889000X-0.762000X0*%
%ADD37O,2.801600X1.401600*%
%ADD38O,2.401600X1.401600*%
%ADD39RoundRect,0.050800X-0.800000X-0.125000X0.800000X-0.125000X0.800000X0.125000X-0.800000X0.125000X0*%
%ADD40RoundRect,0.050800X1.000000X1.000000X-1.000000X1.000000X-1.000000X-1.000000X1.000000X-1.000000X0*%
%ADD41C,2.101600*%
%ADD42RoundRect,0.050800X1.000000X-0.200000X1.000000X0.200000X-1.000000X0.200000X-1.000000X-0.200000X0*%
%ADD43RoundRect,0.050800X-0.200000X-1.000000X0.200000X-1.000000X0.200000X1.000000X-0.200000X1.000000X0*%
%ADD44RoundRect,0.050800X0.500000X0.700000X-0.500000X0.700000X-0.500000X-0.700000X0.500000X-0.700000X0*%
%ADD45RoundRect,0.050800X-0.508000X0.508000X-0.508000X-0.508000X0.508000X-0.508000X0.508000X0.508000X0*%
%ADD46RoundRect,0.050800X-0.550000X-0.750000X0.550000X-0.750000X0.550000X0.750000X-0.550000X0.750000X0*%
%ADD47RoundRect,0.050800X-1.750000X0.750000X-1.750000X-0.750000X1.750000X-0.750000X1.750000X0.750000X0*%
%ADD48RoundRect,0.050800X-1.750000X0.500000X-1.750000X-0.500000X1.750000X-0.500000X1.750000X0.500000X0*%
%ADD49RoundRect,0.050800X1.000000X-0.500000X1.000000X0.500000X-1.000000X0.500000X-1.000000X-0.500000X0*%
%ADD50O,2.901600X1.901600*%
%ADD51RoundRect,0.050800X-0.762000X-0.635000X0.762000X-0.635000X0.762000X0.635000X-0.762000X0.635000X0*%
%ADD52RoundRect,0.050800X-0.635000X0.762000X-0.635000X-0.762000X0.635000X-0.762000X0.635000X0.762000X0*%
%ADD53RoundRect,0.050800X0.635000X-0.762000X0.635000X0.762000X-0.635000X0.762000X-0.635000X-0.762000X0*%
%ADD54RoundRect,0.050800X-1.000000X0.500000X-1.000000X-0.500000X1.000000X-0.500000X1.000000X0.500000X0*%
%ADD55RoundRect,0.050800X-0.508000X-0.508000X0.508000X-0.508000X0.508000X0.508000X-0.508000X0.508000X0*%
%ADD56RoundRect,0.050800X0.889000X0.889000X-0.889000X0.889000X-0.889000X-0.889000X0.889000X-0.889000X0*%
%ADD57RoundRect,0.050800X-2.250000X0.600000X-2.250000X-0.600000X2.250000X-0.600000X2.250000X0.600000X0*%
%ADD58RoundRect,0.050800X-0.775000X0.250000X-0.775000X-0.250000X0.775000X-0.250000X0.775000X0.250000X0*%
%ADD59RoundRect,0.050800X0.600000X-0.275000X0.600000X0.275000X-0.600000X0.275000X-0.600000X-0.275000X0*%
%ADD60C,0.701600*%
%ADD61RoundRect,0.050800X1.100000X-0.550000X1.100000X0.550000X-1.100000X0.550000X-1.100000X-0.550000X0*%
%ADD62O,2.301600X1.301600*%
%ADD63RoundRect,0.050800X1.000000X-0.550000X1.000000X0.550000X-1.000000X0.550000X-1.000000X-0.550000X0*%
%ADD64O,2.101600X1.401600*%
%ADD65RoundRect,0.050800X0.575000X-0.150000X0.575000X0.150000X-0.575000X0.150000X-0.575000X-0.150000X0*%
%ADD66RoundRect,0.050800X0.575000X-0.125000X0.575000X0.125000X-0.575000X0.125000X-0.575000X-0.125000X0*%
%ADD67C,1.301600*%
%ADD68RoundRect,0.050800X2.125000X0.500000X-2.125000X0.500000X-2.125000X-0.500000X2.125000X-0.500000X0*%
%ADD69RoundRect,0.050800X-2.125000X-0.500000X2.125000X-0.500000X2.125000X0.500000X-2.125000X0.500000X0*%
%ADD70RoundRect,0.050800X-0.800000X-0.162500X0.800000X-0.162500X0.800000X0.162500X-0.800000X0.162500X0*%
%ADD71RoundRect,0.050800X1.000000X0.850000X-1.000000X0.850000X-1.000000X-0.850000X1.000000X-0.850000X0*%
%ADD72C,2.701600*%
G04 APERTURE END LIST*
D10*
X4000000Y4650000D03*
X37000000Y4650000D03*
X37000000Y119650000D03*
X4000000Y119650000D03*
D11*
X35390000Y33296260D03*
D12*
X34374000Y33296260D03*
D13*
X28151000Y83842260D03*
D14*
X28151000Y84858260D03*
D13*
X26627000Y83842260D03*
D14*
X26627000Y84858260D03*
D11*
X16008000Y26968000D03*
D12*
X14992000Y26968000D03*
D11*
X16008000Y28492000D03*
D12*
X14992000Y28492000D03*
D15*
X9000000Y122000000D03*
X9000000Y118000000D03*
D16*
X16389000Y23666000D03*
X14611000Y23666000D03*
D11*
X16008000Y25444001D03*
D12*
X14992000Y25444001D03*
D17*
X4000000Y36000000D03*
X10000000Y36000000D03*
D18*
X10300000Y41300000D03*
X3800000Y30700000D03*
D19*
X10000000Y30700000D03*
X6900000Y30700000D03*
X6100000Y41300000D03*
D14*
X17833001Y15743001D03*
D13*
X17833001Y14727001D03*
D20*
X19550040Y16977441D03*
X21452500Y16977441D03*
X20497460Y14767641D03*
D14*
X37930000Y76095260D03*
D13*
X37930000Y75079260D03*
D11*
X19007000Y83207260D03*
D12*
X17991000Y83207260D03*
D14*
X31580000Y66316260D03*
D13*
X31580000Y65300260D03*
D14*
X21292999Y66316260D03*
D13*
X21292999Y65300260D03*
D11*
X17991001Y80286260D03*
D12*
X16975001Y80286260D03*
D13*
X25103000Y83842260D03*
D14*
X25103000Y84858260D03*
D13*
X31453000Y83842260D03*
D14*
X31453000Y84858260D03*
D12*
X35517000Y76476260D03*
D11*
X36533000Y76476260D03*
D12*
X35517000Y77873260D03*
D11*
X36533000Y77873260D03*
D12*
X35517000Y84858260D03*
D11*
X36533000Y84858260D03*
D12*
X35517000Y83461261D03*
D11*
X36533000Y83461261D03*
D12*
X35517000Y82064259D03*
D11*
X36533000Y82064259D03*
D12*
X35517000Y75079261D03*
D11*
X36533000Y75079261D03*
D12*
X16975000Y72158261D03*
D11*
X17991000Y72158261D03*
X17991000Y77492260D03*
D12*
X16975000Y77492260D03*
D14*
X26373001Y25422260D03*
D13*
X26373001Y24406260D03*
X28531999Y47647260D03*
D14*
X28531999Y48663260D03*
D13*
X29929001Y47647260D03*
D14*
X29929001Y48663260D03*
X20404000Y60474260D03*
D13*
X20404000Y59458260D03*
D14*
X21801000Y60474260D03*
D13*
X21801000Y59458260D03*
D14*
X29167000Y60474260D03*
D13*
X29167000Y59458260D03*
D14*
X30437000Y60474260D03*
D13*
X30437000Y59458260D03*
D21*
X16683000Y73725259D03*
X18283000Y75925259D03*
X18283000Y73725259D03*
X16683000Y75925259D03*
D13*
X36914000Y63141260D03*
D14*
X36914000Y64157260D03*
D11*
X19007001Y84477260D03*
D12*
X17991001Y84477260D03*
X16975000Y78889259D03*
D11*
X17991000Y78889259D03*
X36533000Y80667260D03*
D12*
X35517000Y80667260D03*
D11*
X36533000Y79270260D03*
D12*
X35517000Y79270260D03*
D13*
X38250000Y82242000D03*
D14*
X38250000Y83258000D03*
X21674000Y25422260D03*
D13*
X21674000Y24406260D03*
D14*
X20023000Y25422260D03*
D13*
X20023000Y24406260D03*
D14*
X31072000Y25422260D03*
D13*
X31072000Y24406260D03*
D14*
X29421000Y25422260D03*
D13*
X29421000Y24406260D03*
X27897000Y59458260D03*
D14*
X27897000Y60474260D03*
X31326000Y48663260D03*
D13*
X31326000Y47647260D03*
D22*
X27389000Y66570260D03*
X27389000Y65046260D03*
D23*
X28278000Y66570260D03*
X28278000Y65046260D03*
X29040000Y66570260D03*
X29040000Y65046260D03*
D22*
X29929000Y66570260D03*
X29929000Y65046260D03*
X22944000Y66570260D03*
X22944000Y65046260D03*
D23*
X23833000Y66570260D03*
X23833000Y65046260D03*
X24595000Y66570260D03*
X24595000Y65046260D03*
D22*
X25484000Y66570260D03*
X25484000Y65046260D03*
D24*
X36914000Y66383260D03*
X35644000Y66383260D03*
X34374000Y66383260D03*
X33104000Y66383260D03*
X33104000Y72853260D03*
X34374000Y72853260D03*
X35644000Y72853260D03*
X36914000Y72853260D03*
D25*
X29095000Y71895760D03*
X28695000Y71895760D03*
X28295000Y71895760D03*
X27895000Y71895760D03*
X27495000Y71895760D03*
X27095000Y71895760D03*
X26695000Y71895760D03*
X26295000Y71895760D03*
X25895000Y71895760D03*
X25495000Y71895760D03*
X25095000Y71895760D03*
X24695000Y71895760D03*
X24295000Y71895760D03*
X23895000Y71895760D03*
D26*
X23057500Y72733260D03*
X23057500Y73133260D03*
X23057500Y73533260D03*
X23057500Y73933260D03*
X23057500Y74333260D03*
X23057500Y74733260D03*
X23057500Y75133260D03*
X23057500Y75533260D03*
X23057500Y75933260D03*
X23057500Y76333260D03*
X23057500Y76733260D03*
X23057500Y77133260D03*
X23057500Y77533260D03*
X23057500Y77933260D03*
D25*
X23895000Y78770760D03*
X24295000Y78770760D03*
X24695000Y78770760D03*
X25095000Y78770760D03*
X25495000Y78770760D03*
X25895000Y78770760D03*
X26295000Y78770760D03*
X26695000Y78770760D03*
X27095000Y78770760D03*
X27495000Y78770760D03*
X27895000Y78770760D03*
X28295000Y78770760D03*
X28695000Y78770760D03*
X29095000Y78770760D03*
D26*
X29932500Y77933260D03*
X29932500Y77533260D03*
X29932500Y77133260D03*
X29932500Y76733260D03*
X29932500Y76333260D03*
X29932500Y75933260D03*
X29932500Y75533260D03*
X29932500Y75133260D03*
X29932500Y74733260D03*
X29932500Y74333260D03*
X29932500Y73933260D03*
X29932500Y73533260D03*
X29932500Y73133260D03*
X29932500Y72733260D03*
D27*
X27695000Y74133260D03*
X27695000Y76533260D03*
D28*
X26495000Y75333260D03*
D29*
X26495000Y75333260D03*
D27*
X25295000Y76533260D03*
X25225000Y74133260D03*
D30*
X28408999Y51478260D03*
X27758999Y51478260D03*
X27108999Y51478260D03*
X26458999Y51478260D03*
X25808999Y51478260D03*
X25158999Y51478260D03*
X24508999Y51478260D03*
X23858999Y51478260D03*
X23208999Y51478260D03*
X22558999Y51478260D03*
X22558999Y57278260D03*
X23208999Y57278260D03*
X23858999Y57278260D03*
X24508999Y57278260D03*
X25158999Y57278260D03*
X25808999Y57278260D03*
X26458999Y57278260D03*
X27108999Y57278260D03*
X27758999Y57278260D03*
X28408999Y57278260D03*
D31*
X30814000Y57278260D03*
X31464000Y57278260D03*
X32114000Y57278260D03*
X32764000Y57278260D03*
X33414000Y57278260D03*
X34064000Y57278260D03*
X34714000Y57278260D03*
X35364000Y57278260D03*
X36014000Y57278260D03*
X36664000Y57278260D03*
X36664000Y51478260D03*
X36014000Y51478260D03*
X35364000Y51478260D03*
X34714000Y51478260D03*
X34064000Y51478260D03*
X33414000Y51478260D03*
X32764000Y51478260D03*
X32114000Y51478260D03*
X31464000Y51478260D03*
X30814000Y51478260D03*
D12*
X35484000Y113000000D03*
D11*
X36500000Y113000000D03*
D12*
X35484000Y108428000D03*
D11*
X36500000Y108428000D03*
D12*
X35484000Y106820000D03*
D11*
X36500000Y106820000D03*
D12*
X35484000Y105296000D03*
D11*
X36500000Y105296000D03*
D15*
X32500000Y2000000D03*
X41500000Y2000000D03*
D13*
X19007000Y59458260D03*
D14*
X19007000Y60474260D03*
D32*
X35100000Y114905000D03*
X37900000Y114905000D03*
D33*
X32200000Y114400000D03*
X32200000Y122600000D03*
X27800000Y114400000D03*
X27800000Y122600000D03*
D34*
X32210000Y91000000D03*
D35*
X34750000Y91000000D03*
X37290000Y91000000D03*
D36*
X23675000Y14219001D03*
X23675000Y17013001D03*
D37*
X42400000Y105200000D03*
D38*
X48450000Y105200000D03*
D37*
X42400000Y119800000D03*
D38*
X48450000Y119800000D03*
D39*
X41450000Y108000000D03*
X41450000Y108500000D03*
X41450000Y109000000D03*
X41450000Y109500000D03*
X41450000Y110000000D03*
X41450000Y110500000D03*
X41450000Y111000000D03*
X41450000Y111500000D03*
X41450000Y112000000D03*
X41450000Y112500000D03*
X41450000Y113000000D03*
X41450000Y113500000D03*
X41450000Y114000000D03*
X41450000Y114500000D03*
X41450000Y115000000D03*
X41450000Y115500000D03*
X41450000Y116000000D03*
X41450000Y116500000D03*
X41450000Y117000000D03*
D27*
X50000000Y122500000D03*
X45000000Y122500000D03*
X47500000Y122500000D03*
X42500000Y122500000D03*
D12*
X35484000Y103688000D03*
D11*
X36500000Y103688000D03*
D12*
X35484001Y102164000D03*
D11*
X36500001Y102164000D03*
D12*
X35484000Y109952000D03*
D11*
X36500000Y109952000D03*
D12*
X35484000Y111475999D03*
D11*
X36500000Y111475999D03*
X17991000Y81556260D03*
D12*
X16975000Y81556260D03*
D40*
X27500000Y5500000D03*
D41*
X23500000Y5500000D03*
D30*
X20154000Y51478260D03*
X19504000Y51478260D03*
X18854000Y51478260D03*
X18204000Y51478260D03*
X17554000Y51478260D03*
X16904000Y51478260D03*
X16254000Y51478260D03*
X15604000Y51478260D03*
X14954000Y51478260D03*
X14304000Y51478260D03*
X14304000Y57278260D03*
X14954000Y57278260D03*
X15604000Y57278260D03*
X16254000Y57278260D03*
X16904000Y57278260D03*
X17554000Y57278260D03*
X18204000Y57278260D03*
X18854000Y57278260D03*
X19504000Y57278260D03*
X20154000Y57278260D03*
D15*
X9000000Y6000000D03*
D42*
X19384000Y31963260D03*
X19384000Y32763260D03*
X19384000Y33563260D03*
X19384000Y34363260D03*
X19384000Y35163260D03*
X19384000Y35963260D03*
X19384000Y36763260D03*
X19384000Y37563260D03*
X19384000Y38363260D03*
X19384000Y39163260D03*
X19384000Y39963260D03*
D43*
X21484000Y42063260D03*
X22284000Y42063260D03*
X23084000Y42063260D03*
X23884000Y42063260D03*
X24684000Y42063260D03*
X25484000Y42063260D03*
X26284000Y42063260D03*
X27084000Y42063260D03*
X27884000Y42063260D03*
X28684000Y42063260D03*
X29484000Y42063260D03*
D42*
X31584000Y39963260D03*
X31584000Y39163260D03*
X31584000Y38363260D03*
X31584000Y37563260D03*
X31584000Y36763260D03*
X31584000Y35963260D03*
X31584000Y35163260D03*
X31584000Y34363260D03*
X31584000Y33563260D03*
X31584000Y32763260D03*
X31584000Y31963260D03*
D43*
X29484000Y29863260D03*
X28684000Y29863260D03*
X27884000Y29863260D03*
X27084000Y29863260D03*
X26284000Y29863260D03*
X25484000Y29863260D03*
X24684000Y29863260D03*
X23884000Y29863260D03*
X23084000Y29863260D03*
X22284000Y29863260D03*
X21484000Y29863260D03*
D44*
X22273002Y12060000D03*
X18473002Y12060000D03*
D15*
X9000000Y2000000D03*
D45*
X16848000Y33169260D03*
X16848000Y31391260D03*
D13*
X27897000Y24406260D03*
D14*
X27897000Y25422260D03*
D46*
X28690000Y19950000D03*
X31230000Y19950000D03*
X33770000Y19950000D03*
X36310000Y19950000D03*
X36310000Y11050000D03*
X33770000Y11050000D03*
X31230000Y11050000D03*
X28690000Y11050000D03*
D14*
X23325000Y25422260D03*
D13*
X23325000Y24406260D03*
D47*
X51500000Y69350000D03*
X51500000Y60650000D03*
D48*
X45800000Y67000000D03*
X45800000Y65000000D03*
X45800000Y63000000D03*
D49*
X8550000Y104500000D03*
X8550000Y107000000D03*
X8550000Y109000000D03*
X8550000Y111500000D03*
D50*
X6350000Y101600000D03*
X6350000Y114400000D03*
D51*
X11000000Y67734000D03*
X11000000Y69766000D03*
X11000000Y74984000D03*
X11000000Y77016000D03*
D52*
X18234000Y109250000D03*
X20266000Y109250000D03*
D12*
X23992000Y95000000D03*
D11*
X25008000Y95000000D03*
D53*
X15766000Y104500000D03*
X13734000Y104500000D03*
D54*
X42450000Y96000000D03*
X42450000Y93500000D03*
X42450000Y91500000D03*
X42450000Y89000000D03*
D50*
X44650000Y98900000D03*
X44650000Y86100000D03*
D55*
X23611000Y98350000D03*
X25389000Y98350000D03*
D34*
X4250000Y26500000D03*
D56*
X12000000Y2000000D03*
D11*
X11008000Y14500000D03*
D12*
X9992000Y14500000D03*
D49*
X8550000Y56500000D03*
X8550000Y59000000D03*
X8550000Y61000000D03*
X8550000Y63500000D03*
D50*
X6350000Y53600000D03*
X6350000Y66400000D03*
D11*
X9258000Y98500000D03*
D12*
X8242000Y98500000D03*
D34*
X4250000Y24000000D03*
D57*
X50875000Y83300000D03*
X50875000Y71700000D03*
D58*
X48400000Y82000000D03*
X48400000Y81000000D03*
X48400000Y80000000D03*
X48400000Y79000000D03*
X48400000Y78000000D03*
X48400000Y77000000D03*
X48400000Y76000000D03*
X48400000Y75000000D03*
X48400000Y74000000D03*
X48400000Y73000000D03*
D49*
X8550000Y80500000D03*
X8550000Y83000000D03*
X8550000Y85000000D03*
X8550000Y87500000D03*
D50*
X6350000Y77600000D03*
X6350000Y90400000D03*
D59*
X13449900Y109800000D03*
X13449900Y110750000D03*
X13449900Y111700000D03*
X16050100Y111700000D03*
X16050100Y110750000D03*
X16050100Y109800000D03*
D60*
X5530000Y13110000D03*
X5530000Y18890000D03*
D61*
X6030000Y11072400D03*
D62*
X6030000Y11680000D03*
X6030000Y20320000D03*
D61*
X6030000Y20927600D03*
D63*
X1850000Y11072400D03*
D64*
X1850000Y11680000D03*
X1850000Y20320000D03*
D63*
X1850000Y20927600D03*
D65*
X6932000Y12675000D03*
X6932000Y13475000D03*
D66*
X6932000Y14750000D03*
X6932000Y15750000D03*
X6932000Y16250000D03*
X6932000Y17250000D03*
D65*
X6932000Y18525000D03*
X6932000Y19325000D03*
X6932000Y19075000D03*
X6932000Y18275000D03*
D66*
X6932000Y17750000D03*
X6932000Y16750000D03*
X6932000Y15250000D03*
X6932000Y14250000D03*
D65*
X6932000Y13725000D03*
X6932000Y12925000D03*
D67*
X48000000Y52860000D03*
X48000000Y7140000D03*
D68*
X51125000Y54130000D03*
X44875000Y54130000D03*
X51125000Y51590000D03*
X44875000Y51590000D03*
X51125000Y49050000D03*
X44875000Y49050000D03*
X51125000Y46510000D03*
X44875000Y46510000D03*
X51125000Y43970000D03*
X44875000Y43970000D03*
X51125000Y41430000D03*
X44875000Y41430000D03*
X51125000Y38890000D03*
X44875000Y38890000D03*
X51125000Y36350000D03*
X44875000Y36350000D03*
X51125000Y33810000D03*
X44875000Y33810000D03*
X51125000Y31270000D03*
X44875000Y31270000D03*
D69*
X51125000Y28730000D03*
D68*
X44875000Y28730000D03*
D69*
X51125000Y26190000D03*
D68*
X44875000Y26190000D03*
D69*
X51125000Y23650000D03*
D68*
X44875000Y23650000D03*
D69*
X51125000Y21110000D03*
D68*
X44875000Y21110000D03*
D69*
X51125000Y18570000D03*
D68*
X44875000Y18570000D03*
D69*
X51125000Y16030000D03*
D68*
X44875000Y16030000D03*
D69*
X51125000Y13490000D03*
D68*
X44875000Y13490000D03*
D69*
X51125000Y10950000D03*
D68*
X44875000Y10950000D03*
D69*
X51125000Y8410000D03*
D68*
X44875000Y8410000D03*
D69*
X51125000Y5870000D03*
D68*
X44875000Y5870000D03*
D55*
X23611000Y96500000D03*
X25389000Y96500000D03*
D70*
X13100000Y92275000D03*
X13100000Y92925000D03*
X13100000Y93575000D03*
X13100000Y94225000D03*
X13100000Y94875000D03*
X13100000Y95525000D03*
X13100000Y96175000D03*
X13100000Y96825000D03*
X13100000Y97475000D03*
X13100000Y98125000D03*
X13100000Y98775000D03*
X13100000Y99425000D03*
X13100000Y100075000D03*
X13100000Y100725000D03*
X20900000Y100725000D03*
X20900000Y100075000D03*
X20900000Y99425000D03*
X20900000Y98775000D03*
X20900000Y98125000D03*
X20900000Y97475000D03*
X20900000Y96825000D03*
X20900000Y96175000D03*
X20900000Y95525000D03*
X20900000Y94875000D03*
X20900000Y94225000D03*
X20900000Y93575000D03*
X20900000Y92925000D03*
X20900000Y92275000D03*
D21*
X7950000Y94800000D03*
X9550000Y97000000D03*
X9550000Y94800000D03*
X7950000Y97000000D03*
D56*
X14500000Y2000000D03*
D12*
X8242000Y93250000D03*
D11*
X9258000Y93250000D03*
D34*
X17000000Y2000000D03*
X19500000Y2000000D03*
D71*
X15750000Y12000000D03*
X10750000Y12000000D03*
D72*
X22200000Y120000000D03*
X17500000Y120000000D03*
X12800000Y120000000D03*
D51*
X11000000Y50984000D03*
X11000000Y53016000D03*
D11*
X19758000Y111250000D03*
D12*
X18742000Y111250000D03*
D11*
X11008000Y18000000D03*
D12*
X9992000Y18000000D03*
G36*
X2942121Y51979998D02*
G01*
X2988614Y51926342D01*
X3000000Y51874000D01*
X3000000Y44126000D01*
X2979998Y44057879D01*
X2926342Y44011386D01*
X2874000Y44000000D01*
X1626000Y44000000D01*
X1557879Y44020002D01*
X1511386Y44073658D01*
X1500000Y44126000D01*
X1500000Y51874000D01*
X1520002Y51942121D01*
X1573658Y51988614D01*
X1626000Y52000000D01*
X2874000Y52000000D01*
X2942121Y51979998D01*
G37*
M02*
