%TF.GenerationSoftware,KiCad,Pcbnew,7.0.11-7.0.11~ubuntu22.04.1*%
%TF.CreationDate,2024-05-21T14:55:31+03:00*%
%TF.ProjectId,Neo6502PC-CPU_Rev_B,4e656f36-3530-4325-9043-2d4350555f52,B*%
%TF.SameCoordinates,PX365c040PY8f0d180*%
%TF.FileFunction,Soldermask,Top*%
%TF.FilePolarity,Negative*%
%FSLAX46Y46*%
G04 Gerber Fmt 4.6, Leading zero omitted, Abs format (unit mm)*
G04 Created by KiCad (PCBNEW 7.0.11-7.0.11~ubuntu22.04.1) date 2024-05-21 14:55:31*
%MOMM*%
%LPD*%
G01*
G04 APERTURE LIST*
G04 Aperture macros list*
%AMRoundRect*
0 Rectangle with rounded corners*
0 $1 Rounding radius*
0 $2 $3 $4 $5 $6 $7 $8 $9 X,Y pos of 4 corners*
0 Add a 4 corners polygon primitive as box body*
4,1,4,$2,$3,$4,$5,$6,$7,$8,$9,$2,$3,0*
0 Add four circle primitives for the rounded corners*
1,1,$1+$1,$2,$3*
1,1,$1+$1,$4,$5*
1,1,$1+$1,$6,$7*
1,1,$1+$1,$8,$9*
0 Add four rect primitives between the rounded corners*
20,1,$1+$1,$2,$3,$4,$5,0*
20,1,$1+$1,$4,$5,$6,$7,0*
20,1,$1+$1,$6,$7,$8,$9,0*
20,1,$1+$1,$8,$9,$2,$3,0*%
G04 Aperture macros list end*
%ADD10C,3.401601*%
%ADD11C,1.801600*%
%ADD12C,1.101600*%
%ADD13C,1.901600*%
%ADD14RoundRect,0.050800X-0.889000X-0.889000X0.889000X-0.889000X0.889000X0.889000X-0.889000X0.889000X0*%
%ADD15C,1.879600*%
%ADD16O,2.801600X1.401600*%
%ADD17O,2.401600X1.401600*%
%ADD18RoundRect,0.050800X1.000000X1.000000X-1.000000X1.000000X-1.000000X-1.000000X1.000000X-1.000000X0*%
%ADD19C,2.101600*%
%ADD20O,2.901600X1.901600*%
%ADD21RoundRect,0.050800X0.889000X0.889000X-0.889000X0.889000X-0.889000X-0.889000X0.889000X-0.889000X0*%
%ADD22C,0.701600*%
%ADD23O,2.301600X1.301600*%
%ADD24O,2.101600X1.401600*%
%ADD25C,1.301600*%
%ADD26C,2.701600*%
G04 APERTURE END LIST*
D10*
X4000000Y4650000D03*
X37000000Y4650000D03*
X37000000Y119650000D03*
X4000000Y119650000D03*
D11*
X4000000Y36000000D03*
X10000000Y36000000D03*
D12*
X27695000Y74133260D03*
X27695000Y76533260D03*
D13*
X26495000Y75333260D03*
D12*
X25295000Y76533260D03*
X25225000Y74133260D03*
D14*
X32210000Y91000000D03*
D15*
X34750000Y91000000D03*
X37290000Y91000000D03*
D16*
X42400000Y105200000D03*
D17*
X48450000Y105200000D03*
D16*
X42400000Y119800000D03*
D17*
X48450000Y119800000D03*
D18*
X27500000Y5500000D03*
D19*
X23500000Y5500000D03*
D20*
X6350000Y101600000D03*
X6350000Y114400000D03*
X44650000Y98900000D03*
X44650000Y86100000D03*
D14*
X4250000Y26500000D03*
D21*
X12000000Y2000000D03*
D20*
X6350000Y53600000D03*
X6350000Y66400000D03*
D14*
X4250000Y24000000D03*
D20*
X6350000Y77600000D03*
X6350000Y90400000D03*
D22*
X5530000Y13110000D03*
X5530000Y18890000D03*
D23*
X6030000Y11680000D03*
X6030000Y20320000D03*
D24*
X1850000Y11680000D03*
X1850000Y20320000D03*
D25*
X48000000Y52860000D03*
X48000000Y7140000D03*
D21*
X14500000Y2000000D03*
D14*
X17000000Y2000000D03*
X19500000Y2000000D03*
D26*
X22200000Y120000000D03*
X17500000Y120000000D03*
X12800000Y120000000D03*
G36*
X2942121Y51979998D02*
G01*
X2988614Y51926342D01*
X3000000Y51874000D01*
X3000000Y44126000D01*
X2979998Y44057879D01*
X2926342Y44011386D01*
X2874000Y44000000D01*
X1626000Y44000000D01*
X1557879Y44020002D01*
X1511386Y44073658D01*
X1500000Y44126000D01*
X1500000Y51874000D01*
X1520002Y51942121D01*
X1573658Y51988614D01*
X1626000Y52000000D01*
X2874000Y52000000D01*
X2942121Y51979998D01*
G37*
M02*
