M48
; DRILL file {KiCad 7.0.11-7.0.11~ubuntu22.04.1} date 21.05.2024 (вт) 14:55:47
; FORMAT={-:-/ absolute / metric / decimal}
; #@! TF.CreationDate,2024-05-21T14:55:47+03:00
; #@! TF.GenerationSoftware,Kicad,Pcbnew,7.0.11-7.0.11~ubuntu22.04.1
; #@! TF.FileFunction,Plated,1,4,PTH
FMAT,2
METRIC
; #@! TA.AperFunction,Plated,PTH,ViaDrill
T1C0.400
; #@! TA.AperFunction,Plated,PTH,ViaDrill
T2C0.600
; #@! TA.AperFunction,Plated,PTH,ComponentDrill
T3C0.600
; #@! TA.AperFunction,Plated,PTH,ComponentDrill
T4C0.800
; #@! TA.AperFunction,Plated,PTH,ComponentDrill
T5C1.000
; #@! TA.AperFunction,Plated,PTH,ComponentDrill
T6C1.200
; #@! TA.AperFunction,Plated,PTH,ComponentDrill
T7C1.600
%
G90
G05
T1
X5.2Y16.9
X5.2Y15.6
X7.0Y97.9
X7.0Y97.0
X7.6Y98.5
X9.9Y93.25
X10.0Y16.464
X10.0Y15.536
X10.5Y94.75
X10.5Y93.9
X10.5Y60.464
X10.5Y59.536
X11.0Y18.8
X11.0Y17.2
X11.0Y15.1
X11.0Y13.8
X11.7Y14.5
X12.036Y90.0
X12.964Y90.0
X14.23Y26.968
X14.23Y25.444
X14.435Y47.52
X14.992Y26.206
X15.0Y29.144
X15.324Y54.886
X15.493Y47.52
X15.5Y93.064
X15.5Y92.136
X16.091Y48.324
X16.136Y43.3
X16.213Y81.556
X16.213Y80.29
X16.34Y77.492
X16.34Y54.886
X16.848Y49.044
X16.916Y61.473
X16.975Y58.527
X16.975Y42.5
X17.0Y78.0
X17.102Y55.902
X17.232Y83.338
X17.483Y60.474
X17.5Y59.458
X17.683Y63.069
X17.813Y61.541
X17.864Y65.427
X17.905Y42.449
X17.927Y64.348
X18.245Y55.902
X18.372Y49.044
X18.626Y72.666
X18.626Y80.286
X18.644Y41.768
X18.745Y50.25
X18.816Y61.935
X19.0Y22.5
X19.037Y62.884
X19.055Y48.324
X19.261Y81.302
X19.261Y54.251
X19.261Y73.301
X19.261Y55.902
X19.515Y41.5
X19.591Y78.3
X19.655Y50.24
X19.669Y47.449
X19.7Y100.7
X19.896Y73.936
X20.0Y48.782
X20.023Y27.0
X20.023Y23.4
X20.023Y21.75
X20.5Y87.0
X20.5Y86.0
X20.658Y83.207
X20.668Y76.612
X20.7Y41.2
X20.9Y48.4
X21.133Y77.383
X21.166Y60.474
X21.166Y59.458
X21.5Y21.8
X21.674Y55.648
X21.674Y54.632
X21.734Y47.986
X21.8Y40.5
X21.929Y66.316
X22.182Y62.887
X22.245Y70.888
X22.27Y65.427
X22.3Y27.7
X22.337Y47.183
X22.69Y54.632
X22.725Y39.718
X22.772Y93.172
X22.817Y71.523
X23.084Y46.51
X23.3Y26.1
X23.428Y93.828
X23.644Y45.34
X23.73Y39.689
X23.833Y64.03
X24.214Y77.238
X24.214Y75.333
X24.214Y73.428
X24.3Y80.5
X24.595Y63.522
X24.684Y21.8
X24.7Y39.6
X25.1Y97.375
X25.1Y95.625
X25.103Y83.207
X25.132Y58.54
X25.484Y63.268
X25.5Y25.2
X25.766Y84.916
X25.809Y56.227
X25.9Y97.375
X25.9Y95.625
X26.313Y26.0
X26.376Y47.183
X26.486Y58.522
X26.5Y67.84
X26.5Y96.5
X26.5Y77.238
X26.5Y73.428
X26.5Y64.03
X26.627Y83.207
X26.627Y45.615
X26.7Y98.25
X26.7Y97.375
X27.088Y47.732
X27.1Y38.5
X27.707Y48.431
X27.75Y88.0
X27.77Y50.06
X27.884Y37.2
X27.884Y28.4
X28.136Y83.207
X28.532Y46.885
X28.532Y46.0
X28.659Y77.238
X28.659Y75.333
X28.659Y73.428
X28.684Y35.7
X28.879Y61.913
X29.0Y89.25
X29.167Y57.299
X29.25Y48.75
X29.484Y34.484
X29.802Y59.458
X29.802Y60.474
X29.929Y63.268
X29.929Y61.998
X29.929Y58.188
X29.929Y46.885
X29.929Y46.0
X30.056Y71.777
X30.183Y24.914
X30.25Y90.5
X30.281Y39.163
X30.3Y40.4
X30.4Y49.089
X30.894Y67.1
X30.894Y66.316
X31.1Y26.3
X31.3Y46.9
X31.3Y46.1
X31.326Y49.875
X31.453Y83.207
X31.834Y69.364
X31.834Y68.094
X31.9Y112.1
X32.5Y63.732
X32.5Y62.75
X32.5Y48.0
X32.542Y49.242
X33.1Y30.0
X33.104Y68.094
X33.208Y23.392
X33.5Y63.75
X33.612Y70.507
X33.612Y69.491
X33.637Y38.75
X33.8Y16.1
X33.993Y61.236
X34.175Y49.448
X34.4Y27.0
X34.642Y38.75
X34.8Y77.9
X34.8Y76.5
X34.882Y84.2
X34.882Y83.2
X34.882Y82.064
X35.002Y50.018
X35.136Y70.507
X35.5Y40.25
X35.517Y77.175
X35.635Y25.6
X35.962Y69.491
X36.5Y41.4
X36.9Y27.7
X37.106Y82.064
X37.168Y77.873
X37.2Y15.1
X37.3Y44.0
X37.5Y47.25
X37.55Y80.433
X37.55Y79.504
X37.608Y29.908
X37.817Y103.53
X37.817Y102.322
X37.93Y74.444
X38.0Y48.0
X38.0Y46.5
X38.25Y84.25
X38.438Y76.603
X38.438Y70.888
X39.099Y109.168
X39.2Y110.308
X39.345Y9.6
X39.8Y24.0
X40.0Y92.964
X40.0Y92.036
X40.0Y75.0
X40.0Y16.1
X40.0Y15.1
X40.331Y79.0
X40.371Y80.0
X40.75Y74.0
X41.0Y19.9
X41.4Y10.9
X41.4Y9.6
X41.5Y73.0
X41.7Y25.1
X41.95Y75.6
X42.2Y51.6
X42.2Y49.0
X42.2Y46.5
X42.2Y44.0
X42.2Y41.4
X42.25Y39.0
X42.3Y23.6
X42.3Y77.3
X42.3Y36.4
X42.3Y31.3
X42.3Y21.1
X42.3Y18.6
X42.3Y13.5
X42.35Y10.9
X42.44Y33.951
X42.603Y76.404
X42.9Y116.3
X43.7Y116.3
X43.8Y65.0
X44.25Y64.2
X44.5Y29.75
X45.0Y64.2
X45.75Y64.2
X46.5Y64.2
X47.2Y82.8
X47.2Y82.0
X47.2Y81.0
X47.25Y80.0
X47.25Y79.0
X47.25Y78.0
X47.25Y77.0
X47.25Y76.0
X47.25Y75.0
X47.25Y74.0
X47.25Y73.0
X47.25Y64.2
X47.5Y8.5
X48.0Y83.5
X48.0Y82.7
X48.5Y49.0
X48.5Y46.5
X48.5Y44.0
X48.5Y41.4
X48.5Y38.9
X48.5Y36.4
X48.5Y33.8
X48.5Y31.3
X48.5Y28.7
X48.5Y26.2
X48.5Y21.1
X48.5Y18.6
X48.5Y16.0
X48.5Y13.5
X48.5Y10.9
X48.609Y23.6
X49.6Y82.0
X49.6Y81.0
X50.25Y110.75
X50.25Y85.0
X50.4Y82.0
X50.4Y81.0
X50.4Y80.2
X51.2Y82.0
X51.2Y81.0
X51.2Y80.2
X52.0Y82.0
X52.0Y81.0
X52.0Y80.2
X52.984Y82.0
T2
X1.0Y123.0
X1.0Y116.75
X1.0Y113.75
X1.0Y110.75
X1.0Y107.75
X1.0Y104.75
X1.0Y101.75
X1.0Y98.75
X1.0Y95.75
X1.0Y92.75
X1.0Y89.75
X1.0Y86.75
X1.0Y83.75
X1.0Y80.75
X1.0Y77.75
X1.0Y74.75
X1.0Y71.75
X1.0Y68.75
X1.0Y65.75
X1.0Y62.75
X1.0Y59.75
X1.0Y56.75
X1.0Y53.75
X1.0Y41.25
X1.0Y38.25
X1.0Y35.25
X1.0Y32.25
X1.0Y29.25
X1.0Y26.25
X1.0Y23.25
X1.0Y17.25
X1.0Y14.25
X1.0Y9.5
X1.0Y8.25
X1.0Y1.0
X2.25Y15.75
X2.5Y115.25
X2.5Y112.25
X2.5Y109.25
X2.5Y106.25
X2.5Y42.75
X2.5Y39.75
X2.5Y36.75
X2.5Y33.75
X2.5Y27.75
X2.5Y24.75
X2.5Y21.75
X2.5Y18.75
X2.5Y12.75
X2.5Y8.75
X3.75Y21.75
X3.75Y20.5
X3.75Y19.25
X3.75Y12.75
X3.75Y11.5
X3.75Y10.0
X4.5Y8.75
X5.75Y10.0
X5.75Y8.75
X6.0Y84.5
X6.0Y75.75
X6.0Y74.25
X6.0Y73.0
X6.0Y68.75
X6.0Y60.5
X6.0Y51.75
X6.0Y48.75
X6.0Y45.75
X6.75Y1.0
X7.0Y123.0
X7.0Y116.75
X7.0Y112.5
X7.0Y111.5
X7.0Y110.5
X7.0Y105.5
X7.0Y104.5
X7.0Y103.5
X7.0Y88.5
X7.0Y87.5
X7.0Y86.5
X7.0Y64.5
X7.0Y63.5
X7.0Y62.5
X7.0Y8.75
X8.0Y120.0
X8.0Y112.5
X8.0Y110.5
X8.0Y105.5
X8.0Y103.5
X8.0Y88.5
X8.0Y86.5
X8.0Y75.75
X8.0Y74.25
X8.0Y73.0
X8.0Y69.5
X8.0Y68.25
X8.0Y64.5
X8.0Y62.5
X8.0Y50.25
X8.0Y47.25
X8.0Y44.25
X8.0Y4.0
X8.25Y8.75
X8.5Y101.6
X8.6Y18.7
X8.6Y13.3
X8.6Y12.25
X8.6Y11.25
X9.0Y112.5
X9.0Y110.5
X9.0Y105.5
X9.0Y103.5
X9.0Y88.5
X9.0Y86.5
X9.0Y64.5
X9.0Y62.5
X9.0Y24.0
X9.5Y74.25
X9.5Y73.0
X9.5Y67.75
X9.5Y66.5
X9.5Y27.0
X9.5Y8.75
X9.75Y22.5
X10.0Y115.5
X10.0Y112.5
X10.0Y111.5
X10.0Y110.5
X10.0Y105.5
X10.0Y104.5
X10.0Y103.5
X10.0Y101.6
X10.5Y120.0
X10.5Y90.75
X10.75Y8.75
X11.0Y116.75
X11.0Y83.0
X11.0Y57.6
X11.0Y49.75
X11.0Y46.75
X11.0Y25.75
X11.0Y24.0
X11.0Y22.5
X11.5Y123.0
X12.0Y111.75
X12.0Y110.75
X12.0Y6.0
X12.0Y4.0
X12.75Y108.75
X12.75Y107.75
X12.75Y106.75
X12.75Y105.75
X12.75Y103.25
X13.734Y108.75
X13.734Y107.75
X13.734Y106.75
X13.734Y105.75
X13.734Y103.25
X14.0Y123.0
X14.45Y33.75
X14.5Y90.75
X14.5Y36.0
X14.5Y31.5
X14.75Y110.75
X15.25Y121.75
X15.25Y64.5
X15.705Y31.391
X15.705Y30.25
X15.75Y105.75
X15.75Y103.25
X15.75Y34.185
X15.75Y33.25
X16.0Y117.5
X16.25Y109.0
X16.25Y108.0
X16.5Y123.0
X16.848Y34.185
X16.848Y30.248
X17.0Y105.75
X17.0Y104.5
X17.0Y95.0
X17.0Y9.0
X17.0Y6.0
X17.25Y109.0
X17.25Y108.0
X17.75Y121.75
X17.991Y30.248
X18.0Y100.0
X18.0Y98.0
X18.0Y19.0
X18.25Y108.0
X19.0Y123.0
X19.25Y88.0
X20.0Y117.5
X20.25Y121.75
X20.25Y112.0
X20.25Y110.5
X20.25Y108.0
X20.9Y101.4
X21.411Y18.6
X21.472Y39.36
X21.5Y123.0
X21.5Y38.0
X21.5Y35.963
X21.5Y34.0
X21.5Y32.0
X21.5Y4.0
X21.5Y2.5
X21.674Y23.39
X21.75Y88.0
X21.9Y101.4
X22.0Y105.0
X22.6Y100.7
X22.75Y121.75
X23.325Y23.39
X23.5Y38.0
X23.5Y35.963
X23.5Y34.0
X23.5Y32.0
X23.6Y99.4
X24.0Y123.0
X24.0Y117.5
X24.0Y110.5
X24.0Y107.0
X24.0Y103.0
X24.5Y2.5
X24.5Y1.0
X25.161Y14.25
X25.161Y13.25
X25.25Y121.75
X25.25Y120.0
X25.5Y38.0
X25.5Y35.963
X25.5Y34.0
X25.5Y32.0
X26.0Y110.5
X26.0Y109.0
X26.0Y107.0
X26.0Y105.0
X26.0Y103.0
X26.161Y14.25
X26.161Y13.25
X26.5Y123.0
X27.5Y34.0
X27.5Y32.0
X27.5Y2.5
X27.5Y1.0
X27.75Y120.0
X27.75Y117.5
X27.75Y110.5
X27.75Y107.0
X27.75Y103.0
X27.897Y23.39
X28.0Y18.0
X28.0Y16.0
X28.0Y14.0
X29.0Y123.0
X29.421Y23.39
X29.5Y32.0
X30.0Y9.0
X30.0Y7.0
X30.0Y5.0
X30.0Y2.5
X30.0Y1.0
X30.5Y123.0
X30.5Y121.75
X30.5Y120.0
X30.5Y117.5
X30.945Y23.39
X32.0Y18.0
X32.0Y16.0
X32.0Y14.0
X32.85Y84.858
X32.977Y58.95
X33.0Y9.0
X33.0Y7.0
X33.0Y5.0
X33.25Y92.75
X33.75Y115.1
X33.75Y114.1
X34.0Y14.0
X34.247Y58.95
X34.263Y31.874
X34.5Y123.0
X34.5Y1.0
X35.568Y31.883
X36.0Y97.75
X36.0Y95.75
X36.0Y92.75
X36.0Y14.0
X36.0Y9.0
X36.9Y99.4
X38.0Y99.4
X38.0Y9.0
X39.5Y123.0
X39.5Y94.25
X39.5Y1.0
X40.5Y101.5
X40.5Y99.5
X40.75Y107.0
X41.0Y90.0
X41.0Y89.0
X41.25Y123.0
X41.25Y121.25
X42.0Y107.0
X42.0Y103.5
X42.0Y101.5
X42.0Y99.5
X42.0Y90.0
X42.0Y88.0
X42.25Y55.25
X42.25Y53.0
X43.0Y90.0
X43.0Y88.0
X43.25Y111.095
X43.25Y110.0
X43.25Y108.5
X43.25Y107.0
X43.75Y123.0
X44.0Y90.0
X44.0Y89.0
X44.0Y88.0
X44.0Y62.0
X44.0Y60.5
X44.0Y2.5
X44.0Y1.0
X44.25Y55.25
X44.25Y53.0
X45.0Y90.0
X45.0Y89.0
X45.0Y88.0
X45.45Y114.5
X45.45Y113.5
X45.45Y112.5
X45.5Y62.0
X45.5Y60.5
X46.25Y123.0
X46.25Y55.25
X46.25Y53.0
X46.5Y114.5
X46.5Y113.5
X46.5Y112.5
X47.0Y62.0
X47.0Y60.5
X47.0Y2.5
X47.0Y1.0
X48.5Y70.6
X48.5Y66.5
X48.5Y63.5
X48.5Y62.0
X48.5Y60.5
X48.75Y123.0
X49.0Y118.0
X49.0Y115.5
X49.0Y112.5
X49.0Y109.0
X49.0Y107.0
X49.5Y52.75
X49.5Y50.5
X50.0Y79.0
X50.0Y77.5
X50.0Y74.5
X50.0Y70.6
X50.0Y68.0
X50.0Y65.0
X50.0Y62.0
X50.0Y47.775
X50.0Y45.25
X50.0Y42.7
X50.0Y40.15
X50.0Y37.625
X50.0Y35.075
X50.0Y32.53
X50.0Y30.0
X50.0Y27.46
X50.0Y24.925
X50.0Y22.375
X50.0Y19.85
X50.0Y17.3
X50.0Y14.75
X50.0Y12.22
X50.0Y9.68
X50.0Y7.14
X50.0Y4.25
X50.0Y2.5
X50.0Y1.0
X50.5Y52.75
X50.5Y50.5
X51.5Y123.0
X51.5Y121.25
X51.5Y118.25
X51.5Y115.25
X51.5Y112.25
X51.5Y109.25
X51.5Y106.25
X51.5Y103.5
X51.5Y99.75
X51.5Y96.75
X51.5Y94.0
X51.5Y91.0
X51.5Y88.0
X51.5Y85.0
X51.5Y79.0
X51.5Y76.0
X51.5Y73.0
X51.5Y66.5
X51.5Y63.5
X51.5Y59.0
X51.5Y52.75
X51.5Y50.5
X52.984Y122.75
X52.984Y119.75
X52.984Y116.75
X52.984Y113.75
X52.984Y110.75
X52.984Y107.75
X52.984Y105.0
X52.984Y102.0
X52.984Y98.25
X52.984Y95.25
X52.984Y92.5
X52.984Y89.5
X52.984Y86.5
X52.984Y85.0
X52.984Y80.5
X52.984Y77.5
X52.984Y74.5
X52.984Y70.6
X52.984Y68.0
X52.984Y65.0
X52.984Y62.0
X52.984Y59.0
X52.984Y56.0
X52.984Y52.85
X52.984Y50.325
X52.984Y47.775
X52.984Y45.25
X52.984Y42.7
X52.984Y40.15
X52.984Y37.625
X52.984Y35.075
X52.984Y32.53
X52.984Y30.0
X52.984Y27.46
X52.984Y24.925
X52.984Y22.375
X52.984Y19.85
X52.984Y17.3
X52.984Y14.75
X52.984Y12.22
X52.984Y9.68
X52.984Y7.14
X52.984Y4.25
X52.984Y1.0
X53.0Y79.0
T3
X25.225Y74.133
X25.295Y76.533
X27.695Y76.533
X27.695Y74.133
T5
X4.25Y26.5
X4.25Y24.0
X12.0Y2.0
X14.5Y2.0
X17.0Y2.0
X19.5Y2.0
X23.5Y5.5
X27.5Y5.5
X32.21Y91.0
X34.75Y91.0
X37.29Y91.0
T6
X26.495Y75.333
T7
X12.8Y120.0
X17.5Y120.0
X22.2Y120.0
T4
G00X1.55Y20.32
M15
G01X2.15Y20.32
M16
G05
G00X1.55Y11.68
M15
G01X2.15Y11.68
M16
G05
G00X5.58Y20.32
M15
G01X6.48Y20.32
M16
G05
G00X5.58Y11.68
M15
G01X6.48Y11.68
M16
G05
G00X5.85Y114.4
M15
G01X6.85Y114.4
M16
G05
G00X5.85Y101.6
M15
G01X6.85Y101.6
M16
G05
G00X5.85Y90.4
M15
G01X6.85Y90.4
M16
G05
G00X5.85Y77.6
M15
G01X6.85Y77.6
M16
G05
G00X5.85Y66.4
M15
G01X6.85Y66.4
M16
G05
G00X5.85Y53.6
M15
G01X6.85Y53.6
M16
G05
G00X41.7Y119.8
M15
G01X43.1Y119.8
M16
G05
G00X41.7Y105.2
M15
G01X43.1Y105.2
M16
G05
G00X45.15Y98.9
M15
G01X44.15Y98.9
M16
G05
G00X45.15Y86.1
M15
G01X44.15Y86.1
M16
G05
G00X47.95Y119.8
M15
G01X48.95Y119.8
M16
G05
G00X47.95Y105.2
M15
G01X48.95Y105.2
M16
G05
M30
