M48
; DRILL file {KiCad 7.0.11-7.0.11~ubuntu22.04.1} date 21.05.2024 (вт) 16:07:46
; FORMAT={-:-/ absolute / metric / decimal}
; #@! TF.CreationDate,2024-05-21T16:07:46+03:00
; #@! TF.GenerationSoftware,Kicad,Pcbnew,7.0.11-7.0.11~ubuntu22.04.1
; #@! TF.FileFunction,Plated,1,2,PTH
FMAT,2
METRIC
; #@! TA.AperFunction,Plated,PTH,ViaDrill
T1C0.400
; #@! TA.AperFunction,Plated,PTH,ViaDrill
T2C0.600
; #@! TA.AperFunction,Plated,PTH,ComponentDrill
T3C0.800
; #@! TA.AperFunction,Plated,PTH,ComponentDrill
T4C1.000
; #@! TA.AperFunction,Plated,PTH,ComponentDrill
T5C1.600
%
G90
G05
T1
X4.2Y34.5
X13.25Y58.25
X13.75Y18.25
X13.91Y35.35
X13.92Y59.25
X13.933Y52.35
X15.07Y53.31
X15.07Y19.57
X15.2Y36.75
X15.25Y67.614
X15.25Y50.25
X15.3Y33.5
X15.975Y57.725
X16.5Y68.75
X16.5Y51.75
X16.5Y34.7
X18.3Y53.0
X18.918Y35.127
X19.299Y52.183
X19.326Y57.908
X19.677Y34.321
X20.25Y66.5
X20.35Y51.85
X21.5Y68.75
X21.5Y52.0
X21.5Y34.7
X22.35Y60.075
X22.7Y33.582
X22.75Y67.5
X22.75Y50.5
X22.85Y59.525
X23.98Y34.38
X24.013Y51.4
X24.242Y52.25
X24.3Y69.2
X26.506Y35.893
X27.257Y27.37
X27.588Y29.417
X27.588Y28.367
X28.5Y19.25
X30.75Y27.0
X30.75Y17.5
X30.8Y33.3
X30.8Y32.1
X30.8Y30.2
X31.0Y35.0
X32.6Y36.9
X33.4Y31.6
X33.4Y28.5
X33.6Y27.35
X33.7Y36.9
X34.2Y32.4
X34.4Y29.4
X36.2Y28.7
X36.3Y14.45
X36.3Y15.6
X37.086Y15.021
X37.4Y28.7
X38.6Y28.7
T2
X0.972Y53.75
X0.972Y52.5
X0.972Y51.25
X0.972Y50.0
X0.972Y46.25
X0.972Y42.25
X0.972Y35.75
X0.972Y34.5
X0.972Y30.75
X1.0Y68.0
X1.0Y66.0
X1.0Y63.5
X1.0Y61.75
X1.0Y60.0
X1.0Y58.0
X1.0Y56.25
X1.0Y55.0
X1.0Y48.75
X1.0Y47.5
X1.0Y43.5
X1.0Y41.0
X1.0Y39.75
X1.0Y38.5
X1.0Y37.25
X1.0Y32.0
X1.0Y27.75
X1.0Y26.0
X1.0Y24.25
X1.0Y22.5
X1.0Y18.25
X1.0Y15.0
X1.0Y13.75
X1.0Y12.25
X1.0Y11.0
X1.0Y8.25
X1.0Y7.0
X2.25Y67.25
X2.25Y53.75
X2.25Y52.5
X2.25Y51.25
X2.25Y50.0
X2.25Y48.75
X2.25Y47.5
X2.25Y46.25
X2.25Y43.5
X2.25Y42.25
X2.25Y41.0
X2.25Y39.75
X2.25Y38.5
X2.25Y30.75
X2.25Y27.75
X2.25Y26.0
X2.25Y24.25
X2.25Y23.25
X2.25Y22.25
X2.25Y19.25
X2.25Y17.75
X2.25Y15.0
X2.25Y14.0
X2.25Y13.0
X2.25Y12.0
X2.25Y11.0
X2.75Y66.0
X3.5Y27.75
X3.5Y26.0
X3.5Y24.25
X3.5Y23.25
X3.5Y22.25
X3.5Y19.25
X3.5Y17.75
X3.5Y15.0
X3.5Y14.0
X3.5Y13.0
X3.5Y12.0
X3.5Y11.0
X4.25Y66.0
X4.75Y59.0
X4.75Y57.75
X4.75Y24.25
X4.75Y23.25
X4.75Y22.25
X4.75Y21.25
X4.75Y20.25
X4.75Y19.25
X4.75Y17.75
X4.75Y16.25
X4.75Y15.0
X4.75Y14.0
X4.75Y13.0
X5.0Y8.5
X5.75Y67.25
X5.75Y66.0
X5.75Y29.5
X5.75Y28.25
X5.75Y27.0
X5.75Y14.0
X5.75Y12.0
X5.75Y11.0
X5.75Y9.9
X6.0Y59.0
X6.0Y57.75
X6.0Y33.75
X6.0Y32.75
X6.0Y31.75
X6.0Y22.25
X6.0Y21.25
X6.0Y20.25
X6.0Y19.25
X6.0Y17.75
X6.0Y16.25
X6.0Y15.0
X7.0Y74.0
X7.0Y11.0
X7.0Y9.9
X7.0Y8.5
X7.0Y7.0
X7.0Y1.0
X7.5Y68.75
X7.5Y66.75
X7.5Y65.25
X8.1Y11.0
X8.1Y9.9
X8.25Y66.0
X8.25Y4.0
X9.0Y74.0
X9.0Y72.25
X9.0Y70.5
X9.0Y68.75
X9.0Y66.75
X9.0Y65.25
X9.0Y8.5
X9.205Y11.0
X9.205Y9.9
X10.25Y8.5
X10.5Y71.5
X10.5Y70.0
X10.75Y74.0
X11.0Y28.5
X11.0Y27.25
X11.0Y26.0
X11.0Y24.75
X11.0Y23.5
X11.0Y7.0
X11.0Y5.5
X11.0Y4.0
X11.0Y2.5
X11.0Y1.0
X11.25Y72.25
X11.25Y70.75
X11.25Y69.25
X12.0Y71.5
X12.0Y70.0
X12.0Y28.5
X12.0Y27.25
X12.0Y26.0
X12.0Y24.75
X12.0Y23.5
X12.5Y74.0
X13.0Y1.0
X15.0Y1.0
X15.2Y74.0
X16.46Y59.3
X16.5Y11.75
X16.5Y8.75
X17.0Y1.0
X17.75Y74.0
X17.75Y11.75
X17.75Y8.75
X19.0Y11.75
X19.0Y10.25
X19.0Y8.75
X19.0Y1.0
X19.1Y61.3
X19.174Y62.326
X20.25Y74.0
X20.25Y11.75
X20.25Y10.25
X20.25Y8.75
X21.0Y3.75
X21.0Y2.25
X21.0Y1.0
X22.8Y74.0
X22.814Y28.0
X22.814Y22.25
X22.814Y21.016
X23.0Y10.0
X23.0Y8.0
X23.0Y3.75
X23.0Y2.25
X23.0Y1.0
X23.5Y28.75
X23.75Y45.5
X23.75Y44.5
X23.75Y43.5
X23.75Y42.5
X24.079Y68.271
X24.08Y61.3
X24.7Y62.2
X24.8Y35.2
X25.0Y11.25
X25.0Y10.0
X25.0Y8.0
X25.0Y3.75
X25.0Y2.25
X25.0Y1.0
X25.015Y68.6
X25.1Y67.6
X25.1Y66.6
X25.25Y61.3
X25.45Y62.95
X25.5Y34.5
X25.6Y33.5
X25.6Y22.25
X25.6Y21.0
X26.0Y62.0
X26.5Y74.0
X27.0Y18.0
X27.0Y11.25
X27.0Y10.0
X27.0Y8.0
X27.0Y3.75
X27.0Y2.25
X27.0Y1.0
X27.5Y22.25
X27.5Y21.0
X28.25Y65.0
X28.25Y64.0
X28.25Y63.0
X28.25Y61.0
X28.25Y60.0
X28.25Y59.0
X28.25Y58.0
X28.25Y57.0
X28.25Y52.5
X28.25Y51.5
X28.25Y50.5
X28.25Y49.5
X28.317Y62.0
X28.5Y74.0
X28.5Y72.0
X28.75Y38.1
X29.0Y8.0
X29.0Y2.25
X29.0Y1.0
X29.25Y64.0
X29.25Y63.0
X29.25Y62.0
X29.25Y61.0
X29.25Y60.0
X29.25Y59.0
X29.25Y58.0
X29.25Y57.0
X29.25Y52.5
X29.25Y51.5
X29.25Y50.5
X29.5Y38.85
X29.5Y27.6
X29.5Y22.25
X29.5Y21.0
X29.5Y11.25
X30.25Y63.0
X30.25Y62.0
X30.25Y61.0
X30.25Y60.0
X30.25Y59.0
X30.25Y58.0
X30.25Y57.0
X30.25Y52.5
X30.25Y51.5
X30.25Y50.5
X30.25Y49.5
X30.25Y39.6
X30.5Y74.0
X30.5Y72.0
X31.0Y40.35
X31.0Y11.25
X31.0Y8.0
X31.0Y2.25
X31.0Y1.0
X31.25Y62.0
X31.25Y61.0
X31.25Y60.0
X31.25Y59.0
X31.25Y58.0
X31.25Y57.0
X31.25Y52.5
X31.25Y51.5
X31.25Y50.5
X31.25Y49.5
X31.7Y41.05
X32.25Y61.0
X32.25Y60.0
X32.25Y59.0
X32.25Y58.0
X32.25Y57.0
X32.25Y52.5
X32.25Y51.5
X32.25Y50.5
X32.4Y41.75
X32.5Y74.0
X32.5Y21.0
X32.5Y19.0
X32.5Y11.25
X32.5Y8.0
X33.0Y2.25
X33.0Y1.0
X33.1Y42.45
X33.8Y43.15
X34.5Y74.0
X34.5Y72.25
X34.5Y70.5
X34.5Y68.5
X34.5Y66.5
X34.5Y23.0
X34.5Y21.0
X34.5Y19.0
X35.1Y10.0
X35.1Y9.0
X35.1Y8.0
X35.1Y6.75
X35.1Y5.25
X35.1Y4.0
X35.1Y2.75
X35.1Y1.0
X35.5Y41.5
X35.5Y38.8
X36.0Y71.0
X36.4Y10.0
X36.4Y9.0
X36.4Y8.0
X36.5Y66.5
X36.5Y64.5
X36.5Y45.25
X36.5Y25.0
X36.5Y23.0
X36.5Y21.0
X36.5Y19.0
X36.75Y43.75
X36.75Y41.5
X36.75Y38.8
X37.75Y71.0
X37.75Y9.0
X37.75Y8.0
X37.75Y4.0
X38.0Y43.75
X38.0Y41.5
X38.5Y66.5
X38.5Y64.5
X38.5Y62.5
X38.5Y60.5
X38.5Y58.5
X38.5Y56.5
X38.5Y54.5
X38.5Y52.5
X38.5Y50.5
X38.5Y48.75
X38.5Y47.0
X38.5Y45.25
X38.5Y25.0
X38.5Y23.0
X38.5Y21.0
X39.0Y74.0
X39.0Y9.0
X39.0Y8.0
X39.0Y1.0
X40.25Y9.0
X40.25Y8.0
X40.5Y66.5
X40.5Y64.5
X40.5Y62.5
X40.5Y60.5
X40.5Y58.5
X40.5Y56.5
X40.5Y54.5
X40.5Y52.5
X40.5Y50.5
X40.5Y48.75
X40.5Y47.0
X40.5Y45.25
X40.5Y43.75
X40.5Y25.0
X40.5Y23.0
X40.5Y21.0
X41.5Y43.75
X41.5Y41.6
X41.5Y9.0
X41.5Y8.0
X42.0Y64.5
X42.25Y52.5
X42.25Y50.5
X42.5Y66.5
X42.5Y62.5
X42.5Y60.5
X42.5Y58.5
X42.5Y56.5
X42.5Y54.5
X42.5Y48.75
X42.5Y47.0
X42.5Y45.25
X42.5Y43.75
X42.5Y41.6
X42.5Y38.8
X42.5Y36.25
X42.5Y33.725
X42.5Y31.2
X42.5Y28.65
X42.5Y25.0
X42.5Y23.0
X42.5Y21.0
X42.5Y17.0
X42.5Y15.0
X42.5Y12.75
X42.75Y9.0
X42.75Y8.0
X43.5Y43.75
X43.5Y41.6
X44.5Y67.5
X44.5Y62.5
X44.5Y60.5
X44.5Y58.5
X44.5Y56.5
X44.5Y54.5
X44.5Y48.75
X44.5Y47.0
X44.5Y45.25
X44.5Y43.75
X44.5Y41.6
X44.5Y38.8
X44.5Y36.25
X44.5Y33.725
X44.5Y31.2
X44.5Y28.65
X44.5Y25.0
X44.5Y23.0
X44.5Y21.0
X44.5Y18.0
X44.5Y11.91
X44.5Y9.0
X44.5Y8.0
X44.51Y16.0
X44.51Y14.0
T4
X3.0Y64.0
X3.0Y61.5
X3.0Y59.0
X3.0Y56.5
X12.5Y3.0
X15.0Y3.0
X17.5Y3.0
X32.0Y71.27
X32.0Y68.73
T5
X35.0Y62.8
X35.0Y58.0
X35.0Y53.2
X44.2Y64.65
X44.2Y51.35
T3
G00X40.42Y19.32
M15
G01X39.52Y19.32
M16
G05
G00X40.42Y10.68
M15
G01X39.52Y10.68
M16
G05
G00X44.45Y19.32
M15
G01X43.85Y19.32
M16
G05
G00X44.45Y10.68
M15
G01X43.85Y10.68
M16
G05
M30
