%TF.GenerationSoftware,KiCad,Pcbnew,7.0.11-7.0.11~ubuntu22.04.1*%
%TF.CreationDate,2024-05-21T16:07:35+03:00*%
%TF.ProjectId,Neo6502PC-PWR_Rev_B,4e656f36-3530-4325-9043-2d5057525f52,B*%
%TF.SameCoordinates,PXd4ab5c0PY8b3c880*%
%TF.FileFunction,Paste,Top*%
%TF.FilePolarity,Positive*%
%FSLAX46Y46*%
G04 Gerber Fmt 4.6, Leading zero omitted, Abs format (unit mm)*
G04 Created by KiCad (PCBNEW 7.0.11-7.0.11~ubuntu22.04.1) date 2024-05-21 16:07:35*
%MOMM*%
%LPD*%
G01*
G04 APERTURE LIST*
G04 Aperture macros list*
%AMOutline4P*
0 Free polygon, 4 corners , with rotation*
0 The origin of the aperture is its center*
0 number of corners: always 4*
0 $1 to $8 corner X, Y*
0 $9 Rotation angle, in degrees counterclockwise*
0 create outline with 4 corners*
4,1,4,$1,$2,$3,$4,$5,$6,$7,$8,$1,$2,$9*%
G04 Aperture macros list end*
%ADD10Outline4P,-0.850000X-2.275000X0.850000X-2.275000X0.850000X2.275000X-0.850000X2.275000X180.000000*%
%ADD11Outline4P,-0.850000X-2.125000X0.850000X-2.125000X0.850000X2.125000X-0.850000X2.125000X270.000000*%
%ADD12C,1.000000*%
%ADD13R,0.800000X0.800000*%
%ADD14R,0.500000X0.550000*%
%ADD15R,2.000000X1.700000*%
G04 APERTURE END LIST*
D10*
X24080000Y65875000D03*
X24080000Y72125000D03*
X21540000Y65875000D03*
X21540000Y72125000D03*
X19000000Y65875000D03*
X19000000Y72125000D03*
X16460000Y65875000D03*
X16460000Y72125000D03*
X13920000Y65875000D03*
X13920000Y72125000D03*
D11*
X43125000Y42620000D03*
X36875000Y42620000D03*
X43125000Y40080000D03*
X36875000Y40080000D03*
X43125000Y37540000D03*
X36875000Y37540000D03*
X43125000Y35000000D03*
X36875000Y35000000D03*
X43125000Y32460000D03*
X36875000Y32460000D03*
X43125000Y29920000D03*
X36875000Y29920000D03*
X43125000Y27380000D03*
X36875000Y27380000D03*
D10*
X24080000Y48875000D03*
X24080000Y55125000D03*
X21540000Y48875000D03*
X21540000Y55125000D03*
X19000000Y48875000D03*
X19000000Y55125000D03*
X16460000Y48875000D03*
X16460000Y55125000D03*
X13920000Y48875000D03*
X13920000Y55125000D03*
D12*
X9000000Y6000000D03*
X37000000Y69000000D03*
D13*
X32238000Y3500000D03*
X33762000Y3500000D03*
D10*
X24080000Y31875000D03*
X24080000Y38125000D03*
X21540000Y31875000D03*
X21540000Y38125000D03*
X19000000Y31875000D03*
X19000000Y38125000D03*
X16460000Y31875000D03*
X16460000Y38125000D03*
X13920000Y31875000D03*
X13920000Y38125000D03*
D14*
X29508000Y3500000D03*
X28492000Y3500000D03*
D10*
X24080000Y14875000D03*
X24080000Y21125000D03*
X21540000Y14875000D03*
X21540000Y21125000D03*
X19000000Y14875000D03*
X19000000Y21125000D03*
X16460000Y14875000D03*
X16460000Y21125000D03*
X13920000Y14875000D03*
X13920000Y21125000D03*
D14*
X29508000Y9500000D03*
X28492000Y9500000D03*
D15*
X12000000Y10250000D03*
X17000000Y10250000D03*
D12*
X37000000Y6000000D03*
D13*
X32238000Y9500000D03*
X33762000Y9500000D03*
M02*
